<svg xmlns="http://www.w3.org/2000/svg" version="1.1" xmlns:xlink="http://www.w3.org/1999/xlink" xmlns:svgjs="http://svgjs.com/svgjs" width="512" height="512" x="0" y="0" viewBox="0 0 62 62" style="enable-background:new 0 0 512 512" xml:space="preserve" class=""><g><g xmlns="http://www.w3.org/2000/svg"><path d="m22 4c-2.844 0-5.563 1.217-7.46 3.34l1.492 1.332c1.517-1.698 3.693-2.672 5.968-2.672 1.249 0 2.445.279 3.555.831l.891-1.791c-1.39-.69-2.885-1.04-4.446-1.04z" fill="#fff" data-original="#fff" class=""></path><path d="m12.248 11.777 1.949.445c.14-.613.352-1.208.63-1.77l-1.793-.888c-.346.704-.612 1.448-.786 2.213z" fill="#fff" data-original="#fff" class=""></path><path d="m59 48c-1.302 0-2.402.839-2.816 2h-5.184v-6h2.184c.414 1.161 1.514 2 2.816 2 1.654 0 3-1.346 3-3s-1.346-3-3-3c-1.302 0-2.402.839-2.816 2h-2.184v-6h7c.447 0 .841-.297.962-.728.122-.431-.057-.89-.438-1.124l-9.991-6.148h5.467c4.411 0 8-3.589 8-8s-3.589-8-8-8c-.548 0-1.095.058-1.636.173-1.626-4.86-6.161-8.173-11.364-8.173-2.658 0-5.173.881-7.225 2.434-2.566-3.995-6.971-6.434-11.775-6.434-6.253 0-11.656 4.076-13.409 10.009-4.774.215-8.591 4.166-8.591 8.991 0 4.963 4.037 9 9 9h4.467l-9.991 6.148c-.381.234-.56.693-.438 1.124.121.431.515.728.962.728h7v6h-2.184c-.414-1.161-1.514-2-2.816-2-1.654 0-3 1.346-3 3s1.346 3 3 3c1.302 0 2.402-.839 2.816-2h2.184v6h-5.184c-.414-1.161-1.514-2-2.816-2-1.654 0-3 1.346-3 3s1.346 3 3 3c1.302 0 2.402-.839 2.816-2h5.184v6h-2.184c-.414-1.161-1.514-2-2.816-2-1.654 0-3 1.346-3 3s1.346 3 3 3c1.302 0 2.402-.839 2.816-2h2.184v2h9 22 9v-2h2.184c.414 1.161 1.514 2 2.816 2 1.654 0 3-1.346 3-3s-1.346-3-3-3c-1.302 0-2.402.839-2.816 2h-2.184v-6h5.184c.414 1.161 1.514 2 2.816 2 1.654 0 3-1.346 3-3s-1.346-3-3-3zm-3-6c.552 0 1 .448 1 1s-.448 1-1 1-1-.448-1-1 .448-1 1-1zm-50 2c-.552 0-1-.448-1-1s.448-1 1-1 1 .448 1 1-.448 1-1 1zm-3 8c-.552 0-1-.448-1-1s.448-1 1-1 1 .448 1 1-.448 1-1 1zm3 8c-.552 0-1-.448-1-1s.448-1 1-1 1 .448 1 1-.448 1-1 1zm50-2c.552 0 1 .448 1 1s-.448 1-1 1-1-.448-1-1 .448-1 1-1zm-47-32c-3.859 0-7-3.141-7-7s3.141-7 7-7c.053 0 .104.004.156.008l.985.043.189-.805c1.281-5.443 6.079-9.246 11.67-9.246 4.23 0 8.101 2.205 10.271 5.797-.484.516-.942 1.063-1.337 1.669l1.676 1.09c1.856-2.853 4.993-4.556 8.39-4.556 4.624 0 8.616 3.141 9.707 7.638l.261 1.075 1.043-.367c.652-.23 1.321-.346 1.989-.346 3.309 0 6 2.691 6 6s-2.691 6-6 6h-8.717l-11.907-7.327c-1.43-.881-3.322-.881-4.752 0l-11.907 7.327zm20.673-5.624c.799-.492 1.855-.492 2.654 0l22.14 13.624h-4.187l-19.28-11.707-19.28 11.707h-4.187zm-10.673 22.624v-4c0-.552.448-1 1-1h22c.552 0 1 .448 1 1v4c0 .552-.448 1-1 1h-22c-.552 0-1-.448-1-1zm0 8v-4c0-.552.448-1 1-1h22c.552 0 1 .448 1 1v4c0 .552-.448 1-1 1h-22c-.552 0-1-.448-1-1zm1 9c-.552 0-1-.448-1-1v-4c0-.552.448-1 1-1h22c.552 0 1 .448 1 1v4c0 .552-.448 1-1 1zm29 0h-4.184c.112-.314.184-.648.184-1v-4c0-.771-.301-1.468-.78-2 .48-.532.78-1.229.78-2v-4c0-.771-.301-1.468-.78-2 .48-.532.78-1.229.78-2v-4c0-1.654-1.346-3-3-3h-22c-1.654 0-3 1.346-3 3v4c0 .771.301 1.468.78 2-.48.532-.78 1.229-.78 2v4c0 .771.301 1.468.78 2-.48.532-.78 1.229-.78 2v4c0 .352.072.686.184 1h-4.184v-24.437l18-10.93 18 10.93zm10-8c-.552 0-1-.448-1-1s.448-1 1-1 1 .448 1 1-.448 1-1 1z" fill="#fff" data-original="#fff" class=""></path><path d="m42 14h2v2h-2z" fill="#fff" data-original="#fff" class=""></path><path d="m22 14h2v2h-2z" fill="#fff" data-original="#fff" class=""></path><path d="m38 14h2v2h-2z" fill="#fff" data-original="#fff" class=""></path><path d="m18 14h2v2h-2z" fill="#fff" data-original="#fff" class=""></path><path d="m26 14h2v2h-2z" fill="#fff" data-original="#fff" class=""></path><path d="m34 14h2v2h-2z" fill="#fff" data-original="#fff" class=""></path><path d="m30 14h2v2h-2z" fill="#fff" data-original="#fff" class=""></path></g></g></svg>